<svg width="12" height="24" fill="none" xmlns="http://www.w3.org/2000/svg"><g clip-path="url(#a)" fill-rule="evenodd" clip-rule="evenodd"><path d="M9.444.092c-.105.067-.059.089.151.089.175 0 .339-.034.374-.09.082-.122-.315-.122-.525 0ZM9.35.515c-.116.033-.105.089.024.222.14.123.221.134.338.045a.434.434 0 0 1 .374-.056c.175.045.187.034.046-.044C9.876.526 9.514.448 9.35.515Z"/><path d="M9.724.882c-.047.067-.175.09-.304.056C9.304.893 9.2.916 9.2.97c0 .156.572.49.7.412.187-.111.14-.278-.07-.278-.164 0-.164-.034-.047-.167.082-.09.117-.167.082-.167s-.105.055-.14.111ZM10.751 1.15c.012.055-.105.166-.268.244-.245.123-.257.156-.082.223.175.055.152.111-.163.367-.42.345-.327.49.385.612.373.067.455.045.572-.178.116-.211.093-.267-.175-.478-.35-.268-.42-.646-.094-.535.105.034.164.023.105-.022-.046-.056.059-.156.234-.223l.326-.133-.431.011c-.234.011-.42.056-.409.111ZM9.082 1.272c0 .033.082.189.187.334.124.185.077.278-.14.278-.269 0-.304.022-.164.111.14.09.129.112-.082.112-.268 0-.385.222-.116.222.105 0 .105.023-.012.1-.082.045-.14.134-.117.19.012.055-.035.211-.116.345-.164.278-.187.267.665.311.385.023.42-.211.058-.478-.186-.134-.186-.156-.011-.1.105.044.198.022.198-.045s.047-.089.105-.056c.175.1.257-.278.105-.456-.117-.145-.093-.211.14-.39.164-.133.21-.211.117-.2-.374.056-.584-.011-.584-.167 0-.089-.046-.167-.116-.167-.059 0-.117.022-.117.056Zm.35 1.124c0 .09-.222.145-.28.067-.035-.056.012-.1.105-.1s.175.022.175.033Z"/><path d="M11.066 1.717c.082.089.198.134.257.1.07-.044.058-.111-.035-.167-.257-.156-.385-.111-.222.067ZM11.708 2.33c.035.055.094.11.128.11.024 0 .047-.055.047-.11 0-.068-.058-.112-.128-.112-.059 0-.082.044-.047.111ZM11.3 2.596c0 .2.221.345.326.234.047-.044.012-.111-.07-.133-.07-.034-.116-.1-.07-.156.035-.056 0-.1-.058-.1-.07 0-.129.066-.129.155ZM10.086 2.819c.035.078-.059.2-.21.267-.152.067-.199.123-.117.123.082.01.117.055.082.122-.035.056-.024.111.046.111.059 0 .094.1.07.223-.023.134.024.256.117.3.268.09.07.279-.21.19-.222-.067-.234-.056-.105.089.117.145.117.19-.047.245-.117.044-.245.01-.303-.067-.07-.111-.094-.09-.094.044 0 .112.059.2.129.2.058 0 .093.045.058.09-.023.044-.012.156.058.245.07.111.105.122.105.022 0-.067.082-.134.176-.134.151 0 .163.045.058.234-.128.212-.152.212-.339.056-.116-.1-.373-.178-.595-.178-.338 0-.362-.022-.222-.19.117-.122.117-.155.024-.1-.082.045-.152.023-.152-.033 0-.067.058-.122.117-.122.07 0 .116-.045.116-.1 0-.134-.607 0-.793.177-.082.078-.117.19-.082.256.035.056 0 .112-.093.112-.292 0-.304.29-.059.679.14.211.269.323.292.234a.272.272 0 0 1 .222-.134c.093 0 .128-.067.082-.19-.059-.144-.024-.166.175-.122.14.045.291.023.326-.033.035-.056.129-.1.199-.1.082.01-.058.167-.304.378-.396.312-.431.379-.268.501.105.078.257.123.362.09.093-.045.222.01.28.122.07.11.128.133.128.044 0-.067.117-.133.269-.133h.257l-.246.2c-.14.1-.28.267-.315.356-.046.111-.07.09-.07-.078-.011-.133-.058-.267-.105-.3-.152-.09-.408.122-.327.256.047.066.14.1.199.066.058-.044.105-.01.105.045 0 .334-.642-.212-.724-.601-.023-.123-.093-.223-.175-.223a.38.38 0 0 1-.222-.078c-.14-.144-.875.724-.793.935.035.123 0 .2-.094.2-.128 0-.128.023 0 .1.129.079.117.101-.035.157-.152.055-.163.122-.058.3.117.212.07.267-.164.234-.058-.011-.07.056-.035.156.047.089.012.167-.07.167-.081 0-.011.1.152.222.222.167.245.223.105.223a.333.333 0 0 0-.268.167c-.117.3.467.19.77-.145.397-.456.654-.523.584-.167-.035.156-.152.312-.28.345-.199.045-.187.067.07.301l.291.256-.256.078c-.14.044-.304.067-.374.056-.058-.012-.047.044.035.122.245.245.175.657-.105.657-.163 0-.222.056-.187.156.035.089.012.189-.07.222-.081.034.047.034.28 0 .432-.066.7.09.444.245-.093.056-.105.034-.047-.067.14-.211-.618-.055-.922.2-.117.1-.187.123-.14.045.058-.089 0-.245-.128-.378-.117-.134-.14-.2-.07-.156.081.044.245.022.35-.033.198-.112.187-.112-.024-.123-.175 0-.198-.022-.07-.1.082-.056.129-.167.105-.245-.035-.089.024-.211.117-.278.14-.1.14-.145-.023-.3-.175-.168-.175-.19.012-.29.186-.1.186-.112.011-.123-.105 0-.268.078-.373.167-.094.09-.234.167-.304.167-.07 0-.093.045-.058.112.035.055.012.11-.047.11-.07 0-.128.079-.128.168 0 .089-.07.167-.164.167-.303 0-.327.223-.046.323.21.089.221.111.058.111-.117.011-.175.056-.14.122.035.056 0 .112-.082.112-.105 0-.105.033.024.111.151.09.151.123-.012.245a.867.867 0 0 0-.257.334c-.058.156-.012.2.21.2.164 0 .292.045.292.112 0 .055-.07.11-.163.11-.094 0-.199.068-.222.135-.047.11-.07.11-.07 0-.024-.223-.315-.156-.327.088-.012.145.047.223.175.223.125.008.125.048 0 .123-.117.055-.21.167-.21.222 0 .067.058.078.117.045.07-.034.116-.011.116.044a.127.127 0 0 1-.128.123c-.07 0-.105.067-.082.133.035.078-.058.223-.186.334-.21.167-.222.212-.07.312.151.089.14.111-.036.111-.14 0-.186.045-.116.134.128.2.152.434.035.367-.059-.033-.129-.011-.175.056-.035.055-.012.111.046.111.07 0 .129.045.129.111 0 .056-.07.112-.152.112-.082 0-.152.1-.163.222-.012.123.023.223.07.223.046 0 .093.078.093.167 0 .111-.093.145-.303.1-.234-.044-.269-.033-.129.056.187.122.28.612.105.5-.058-.033-.105 0-.105.056 0 .067-.233.123-.525.123-.292 0-.514-.034-.514-.09.012-.044 0-.1-.011-.133a2.086 2.086 0 0 1-.047-.323l-.035-.256.198.245c.152.19.257.234.467.167l.28-.089-.315-.156c-.338-.167-.432-.322-.128-.211.105.033.14.022.105-.056-.047-.056-.175-.078-.28-.044-.292.089-.56-.034-.63-.29-.07-.256.093-.278.245-.033.093.167.116.167.175 0 .046-.112.035-.167-.035-.123-.07.034-.117-.01-.117-.11 0-.123-.07-.157-.28-.101-.245.056-.28.033-.234-.156a.398.398 0 0 0-.116-.378c-.094-.1-.14-.212-.094-.245.035-.045 0-.123-.093-.178-.152-.09-.14-.112.023-.112.105 0 .234.045.269.112.035.055.151.11.256.11.152 0 .14-.044-.07-.266-.14-.145-.245-.334-.221-.412.023-.09-.047-.156-.152-.145-.105.011-.187-.044-.187-.122 0-.09.082-.123.175-.078.117.033.152.01.094-.067-.047-.078-.175-.134-.28-.134-.164 0-.164-.022-.036-.1.082-.055.129-.144.082-.211-.035-.067 0-.134.07-.167.117-.034.105-.1-.047-.267-.175-.178-.338-.212-1.05-.178-.763.022-1.144.137-1.144.345 0 .245.035.267.35.2.234-.037.292.03.175.2-.093.134-.14.29-.105.323.047.045-.011.1-.116.145-.222.078-.257.245-.035.234.455-.011.536.044.501.334-.011.178.012.423.07.556.047.145.047.256-.011.256-.164 0-.385-.311-.315-.434.058-.089-.035-.089-.397-.011-.035 0 .035.078.163.167.117.078.175.211.129.278-.047.067-.024.178.035.256.058.078.14.267.186.434.059.234.14.312.362.312.164 0 .339.089.409.223.07.122.245.222.385.222.171 0 .163.048-.023.145-.35.167-.339.334.011.434.199.045.21.067.059.078-.164.011-.199.067-.129.256.035.145.129.267.175.29.059.022.105.11.105.189 0 .089.082.122.234.089.128-.034.233 0 .233.067 0 .066-.081.122-.175.122-.268 0-.21.245.14.523.164.145.245.256.164.256-.082 0-.105.045-.07.111.035.056-.012.112-.105.112-.094 0-.199.044-.234.089-.07.111.514 1.246.642 1.246.058 0 .07-.077.035-.166-.047-.09-.012-.167.058-.167s.14.044.14.11c.036.223.047.28.152.435.07.1.059.134-.011.09-.152-.09-.304.222-.199.389.035.055.14.078.222.044.093-.033.222.022.303.111.117.134.106.145-.046.1-.094-.044-.21-.022-.257.045-.035.067 0 .123.093.123.199 0 .35.29.245.478-.035.078.024.034.117-.078.199-.233.257-.122.082.156-.175.245-.012.368.187.145.093-.111.14-.134.093-.067-.035.078-.012.145.058.145s.047.111-.07.278c-.175.256-.175.29.07.601.222.312.292.334.794.29.385-.023.479-.012.304.055-.35.134-.467.345-.257.49a.925.925 0 0 1 .245.312c.035.111.152.2.257.2.105 0 .175.1.187.245 0 .234.023.223.128-.056.07-.2.175-.29.28-.256.093.034.257.1.374.134.163.056.175.044.023-.056-.117-.078-.128-.122-.023-.122.081 0 .14-.145.14-.334 0-.19.058-.334.151-.334.07 0 .047-.056-.07-.122-.21-.112-.21-.123 0-.279.117-.078.164-.156.105-.156-.058 0-.035-.078.047-.167.117-.144.117-.211-.047-.378-.116-.122-.151-.245-.093-.278.07-.034.093-.178.047-.312-.047-.178-.024-.223.116-.178.094.044.246.022.339-.022.117-.078.082-.123-.163-.212-.176-.067-.316-.156-.316-.19 0-.044.035-.044.082-.01.117.111.409-.345.315-.501-.046-.067-.035-.09.047-.045.07.034.152.023.187-.033s-.047-.123-.187-.156c-.21-.056-.222-.089-.093-.234.081-.1.105-.178.058-.178-.047 0-.023-.078.058-.167.082-.089.117-.234.082-.334a.18.18 0 0 1 .058-.234c.082-.044.07-.1-.035-.166-.116-.067-.128-.1-.011-.1.07 0 .14-.1.14-.223s-.059-.223-.117-.223c-.07 0-.012-.111.117-.245.14-.145.221-.345.186-.445-.023-.111 0-.223.047-.256.164-.1.082-.512-.082-.456-.081.033-.151.01-.151-.045 0-.067.105-.111.222-.111.291 0 .361-.112.408-.624.023-.222.105-.445.187-.49.07-.044.128-.11.117-.155-.035-.167.151-.857.245-.913.058-.033.105-.2.105-.39 0-.178.035-.322.093-.322.047 0 .093-.156.105-.345.012-.19.082-.412.152-.49.058-.067.082-.167.047-.2-.035-.034-.024-.134.023-.212a.962.962 0 0 0 .117-.2c0-.034.07-.212.151-.39.082-.19.164-.423.187-.523.023-.1.105-.29.175-.423.07-.134.105-.312.07-.401-.035-.089-.023-.156.035-.156.187 0 .339-.512.222-.723-.093-.134-.082-.178 0-.123.07.045.21-.078.315-.267.129-.234.14-.334.047-.334-.082 0-.059-.089.058-.211.222-.234.199-.646-.035-.59-.082.01-.117-.023-.07-.09.035-.066.129-.077.199-.044.081.056.105.011.058-.1-.047-.123-.023-.156.093-.123.105.045.14-.01.129-.144-.024-.112.011-.223.058-.267.128-.078.339-1.125.257-1.247-.035-.056-.012-.134.058-.178.07-.045.152-.29.164-.546.023-.322.093-.467.21-.467.14-.011.14-.034-.024-.123-.186-.1-.186-.122-.011-.322.233-.256.292-.668.082-.59-.082.022-.117.133-.082.233.058.145.023.134-.234-.044-.163-.111-.315-.256-.315-.312 0-.055.07-.033.164.034.116.1.186.089.291-.034.082-.089.222-.133.316-.1.093.033.163 0 .163-.067s-.128-.145-.292-.189c-.163-.033-.292-.111-.292-.156 0-.1-.49-.245-1.015-.278-.245-.022-.35.011-.315.1Zm.478.134c-.035.033-.14.044-.222.01-.093-.033-.058-.066.07-.066.129-.011.199.022.152.056Zm-.397 1.792a.924.924 0 0 1-.35 0c-.116-.034-.046-.056.14-.056.199 0 .28.022.21.056Zm1.05.156c.036.11-.022.222-.116.256-.093.033-.128.022-.093-.034.035-.055-.058-.189-.199-.278l-.268-.178.315.022c.187.011.339.1.362.212Zm-2.31 1.102c-.117.122-.234.2-.269.167-.081-.067.21-.39.362-.39.059 0 .024.1-.093.223Zm-1.167.779a.3.3 0 0 1-.21.111c-.082 0-.07-.044.034-.111.222-.134.269-.134.176 0Zm.758.067c0 .089-.058.133-.128.089-.082-.045-.105.022-.082.178.023.156-.035.278-.14.3-.152.045-.152.034 0-.067.14-.1.14-.122-.023-.178-.164-.066-.175-.11-.059-.289.164-.256.432-.278.432-.033Zm-.35.846c0 .066-.035.089-.082.055-.035-.044-.128-.022-.21.034-.093.078-.14.055-.14-.056 0-.09.105-.167.222-.167s.21.056.21.134Zm.817.144c0 .023-.105.034-.222.023-.128 0-.21-.056-.175-.1.047-.067.397 0 .397.077Zm-.14.668c-.035.034-.105-.022-.14-.133-.07-.156-.058-.167.058-.067.082.078.117.167.082.2Zm1.366-.067c.082.134-.339.368-.455.268-.035-.034-.07-.134-.07-.223 0-.167.42-.2.525-.045Zm-1.611.078c-.035.034-.14.045-.222.011-.093-.033-.058-.066.07-.066.129-.012.199.022.152.055Zm.093.479c-.128.111-.373.167-.642.122-.093-.01-.011-.066.175-.11.514-.123.584-.123.467-.012Zm.992.39c0 .022-.081.077-.186.11-.094.034-.14.023-.105-.044.07-.111.291-.156.291-.066Zm-1.575.4a.3.3 0 0 1-.21.112c-.082 0-.07-.045.035-.112.221-.133.268-.133.175 0Zm.373.401c-.035.033-.14.044-.222.011-.093-.033-.058-.067.07-.067.129-.01.199.023.152.056Zm-2.066.49c0 .055-.023.111-.046.111-.036 0-.094-.056-.129-.111-.035-.067-.012-.112.047-.112.07 0 .128.045.128.112Zm.642.835c-.187.155-.432.278-.525.278-.14-.011-.14-.034.023-.156.117-.078.164-.19.117-.234-.047-.055-.012-.055.058-.01.082.044.245.021.35-.034.35-.2.339-.123-.023.156Zm.852-.045c.035.134.024.134-.07 0-.07-.089-.175-.111-.257-.067-.105.056-.128.045-.07-.044.117-.167.327-.112.397.111Zm-5.79.379c.036.155.012.278-.034.278-.059 0-.105-.034-.117-.09a2.14 2.14 0 0 0-.047-.277c-.023-.1 0-.19.059-.19.046 0 .116.123.14.279Zm5.347.178c0 .055-.047.1-.117.1-.058 0-.117-.078-.117-.178 0-.09.059-.134.117-.1a.21.21 0 0 1 .117.178Zm-.876.167c-.155.11-.148.185.024.222.151.045.245.145.233.267-.012.123-.082.179-.222.134-.14-.033-.21 0-.186.089.023.078-.035.167-.106.19-.081.033-.151-.023-.151-.123s-.07-.178-.14-.19c-.117 0-.117-.022-.012-.055.07-.034.105-.178.082-.323-.035-.2-.012-.256.116-.211.094.033.199.01.246-.056a.276.276 0 0 1 .21-.122c.081 0 .035.077-.094.178Zm1.611-.045c-.07.123-.362.111-.432-.011-.035-.056.059-.09.21-.078.152 0 .257.045.222.09Zm-.327.29c-.035.033-.128 0-.21-.078-.105-.112-.093-.123.07-.056.117.033.175.1.14.133Zm-.595.11c.035.056-.012.101-.105.101s-.14-.044-.105-.1c.035-.045.082-.09.105-.09.023 0 .07.045.105.09Zm-.047.357c0 .056-.023.111-.046.111-.035 0-.094-.055-.129-.111-.035-.067-.011-.111.047-.111.07 0 .128.044.128.111Zm1.634.056c0 .022-.081.055-.175.1-.105.033-.175 0-.175-.1s.07-.134.175-.1c.094.044.175.077.175.1Zm-1.949.523c.105 0 .199.033.199.078 0 .044-.257.089-.56.078-.363-.011-.573-.056-.573-.145 0-.1.117-.123.362-.078.199.045.455.067.572.067Zm-.805.4c.081.134-.082.312-.362.379-.327.078-.362-.089-.035-.19.128-.044.21-.122.175-.177-.047-.056-.023-.1.047-.1.058 0 .14.044.175.089Zm.478.023c.035.055.012.111-.046.111-.07 0-.129-.056-.129-.111 0-.067.024-.112.047-.112.035 0 .093.045.128.112Zm-4.062.29c-.035.033-.14.044-.222.01-.093-.033-.058-.066.07-.066.129-.011.199.022.152.055Zm-1.307.155c.035.056.012.111-.058.111-.082 0-.117.078-.082.156.047.112.012.145-.105.1-.21-.078-.21-.478 0-.478.093 0 .21.044.245.111Zm5.136 0c.035.056.012.111-.047.111-.07 0-.128-.055-.128-.11 0-.068.023-.112.046-.112.035 0 .094.044.129.111Zm-.409.212c-.163.289-.151.311.117.378.128.033.233.1.233.156 0 .111-.606.1-.805-.011-.07-.045-.233-.056-.338-.023-.105.045-.07-.022.093-.144.152-.123.327-.19.385-.156.058.033.129-.045.164-.178.035-.134.105-.234.175-.234.058 0 .046.09-.024.212Zm-.116 1.001c0 .056.035.2.07.312.035.111.023.156-.035.09-.047-.068-.164-.112-.234-.123-.432-.034-.502-.056-.502-.167 0-.056.047-.09.094-.056.046.022.163.011.256-.056.222-.122.35-.122.35 0Zm-.374.48c-.023.088.058.133.187.11.163-.033.198.012.14.145-.047.145-.023.178.105.134.093-.045.198-.023.233.044.047.056.14.078.21.034.082-.034.047.01-.081.11-.117.09-.175.212-.14.268.035.067-.024.1-.129.078a11.322 11.322 0 0 0-.327-.056c-.058-.01 0-.055.152-.111.14-.056.257-.167.245-.245 0-.111-.023-.111-.07-.011-.035.1-.116.111-.256.033-.164-.078-.21-.055-.21.09 0 .1.058.255.128.345.093.122.093.166-.012.2-.082.033-.152.1-.152.156 0 .067.059.078.117.044.07-.033.117-.01.117.056 0 .078-.094.1-.257.044a2.596 2.596 0 0 0-.619-.078l-.35.012.327-.112c.304-.1.315-.122.117-.256-.199-.144-.199-.156 0-.222.35-.134.21-.268-.269-.245-.291.01-.467.066-.467.156 0 .211-.081.178-.443-.134-.315-.278-.199-.378.222-.167.175.1.245.078.291-.056.059-.144.106-.144.257-.033.14.111.187.111.222 0 .035-.067.152-.134.28-.134.14 0 .187-.055.152-.167-.047-.1 0-.167.117-.167.105 0 .175.067.163.134Zm-2.953.4c-.035.033-.128 0-.21-.078-.105-.111-.094-.123.07-.056.117.034.175.1.14.134Zm4.587.111c.07.2-.175.156-.257-.044-.046-.112-.011-.156.07-.134.07.022.164.111.187.178Zm-4.003 1.358c.035.056.011.111-.047.111-.07 0-.129-.055-.129-.11 0-.068.024-.112.047-.112.035 0 .094.044.129.111Zm2.51 0c-.234.145-.386.145-.293 0 .035-.067.164-.111.269-.111.175 0 .175.022.023.111Zm-2.686.802c0 .144-.268.055-.326-.112-.024-.078.023-.111.14-.067.105.034.186.123.186.179Zm2.452-.134a.835.835 0 0 1-.35.1c-.117 0-.094-.033.058-.1.315-.134.502-.134.292 0Zm-1.868.557c0 .055-.023.11-.047.11-.035 0-.093-.055-.128-.11-.035-.067-.012-.112.047-.112.07 0 .128.045.128.112Zm1.05 1.614c0 .133-.338.033-.396-.112-.047-.144-.024-.155.163-.055.129.066.234.144.234.167Zm.327.512a.386.386 0 0 1-.408 0c-.175-.1-.14-.112.198-.112.339 0 .374.011.21.112Zm.152.267c0 .067-.105.122-.21.122a2.3 2.3 0 0 0-.443.1c-.292.112-.152-.033.198-.222.303-.156.467-.156.455 0Zm-.28.467c-.093.1-.233.134-.315.09-.094-.056-.07-.123.082-.223.268-.19.455-.078.233.133Zm.502.034c0 .122-.023.222-.047.222-.023 0-.07-.1-.105-.222-.035-.123-.011-.223.047-.223.058 0 .105.1.105.223Zm.654.189c-.082.078-.304-.078-.304-.212 0-.066.07-.066.175.023.105.078.152.167.129.189Zm.046.768c0 .09-.221.145-.28.067-.035-.056.012-.1.105-.1.094 0 .175.022.175.033Z"/><path d="M8.382 3.442c0 .067.058.09.128.045.082-.045.117-.011.082.078s-.129.145-.21.122c-.094-.022-.117.034-.082.134.047.1.012.167-.07.145-.082-.012-.14.055-.14.144 0 .1.128.178.327.2.186.023.315-.01.315-.1 0-.066.093-.1.21-.077.292.077.56-.301.303-.401-.093-.034-.14-.112-.105-.178.035-.056-.035-.112-.163-.112-.117 0-.304-.033-.409-.066-.105-.034-.186-.012-.186.066Zm.782.512c-.035.034-.14.045-.222.012-.094-.034-.059-.067.07-.067.128-.011.198.022.152.055ZM9.549 3.776c0 .056.058.112.128.112.058 0 .082-.056.047-.112-.035-.067-.094-.111-.129-.111-.023 0-.046.044-.046.111ZM.27 10.566c.046.067.151.1.244.067.094-.033.129 0 .082.1-.035.09-.093.145-.14.123-.047-.034-.152-.011-.245.056-.152.077-.14.1.035.1.105 0 .198.055.198.122 0 .056-.046.078-.116.045-.059-.034-.117-.011-.117.044 0 .145.023.145.397.022.245-.1.268-.155.198-.423-.058-.211-.175-.322-.35-.345-.187-.033-.245 0-.187.09ZM1.063 11.023c.012.122.082.189.163.167.07-.034.164 0 .199.078.035.1.058.089.058-.011.012-.09.07-.112.163-.067.106.067.106.044-.011-.09-.234-.278-.595-.322-.572-.077ZM0 12.448c.012.289.036.311.176.167.093-.09.14-.234.105-.323-.105-.29-.292-.178-.28.156ZM.246 13.093c-.21.078-.187.256.023.256.094 0 .175-.078.175-.167 0-.089-.011-.167-.023-.155a.767.767 0 0 0-.175.066ZM2.954 13.917c-.117.167.035.278.187.133.081-.077.081-.144.011-.189-.07-.033-.163-.01-.198.056ZM.911 15.297c0 .034.058.178.14.312.082.133.152.345.175.467.059.29.222.446.315.29.047-.067.024-.123-.046-.123-.082 0-.117-.077-.07-.167.035-.089-.012-.233-.117-.322-.093-.09-.152-.223-.14-.3.023-.068-.035-.157-.105-.179-.082-.033-.152-.022-.152.022ZM1.845 17.457c0 .055.058.144.117.178.07.033.116.022.116-.045a.226.226 0 0 0-.116-.178c-.059-.033-.117-.022-.117.045Z"/></g></svg>