<svg width="24" height="24" fill="none" xmlns="http://www.w3.org/2000/svg"><g clip-path="url(#a)"><path d="M12 0C8.743 0 8.334.014 7.054.072 5.775.131 4.903.333 4.14.63a5.876 5.876 0 0 0-2.125 1.384A5.89 5.89 0 0 0 .63 4.139c-.298.763-.5 1.636-.558 2.913C.015 8.332 0 8.74 0 12c0 3.259.014 3.666.072 4.946.06 1.278.261 2.15.558 2.913a5.88 5.88 0 0 0 1.384 2.126 5.874 5.874 0 0 0 2.125 1.384c.763.297 1.636.5 2.913.558 1.28.058 1.689.073 4.947.073 3.26 0 3.667-.015 4.947-.073 1.278-.058 2.15-.26 2.914-.558a5.869 5.869 0 0 0 2.124-1.384 5.89 5.89 0 0 0 1.385-2.126c.295-.763.498-1.635.558-2.912.057-1.28.072-1.688.072-4.947 0-3.26-.015-3.668-.072-4.948-.06-1.278-.263-2.15-.558-2.913a5.89 5.89 0 0 0-1.385-2.125A5.865 5.865 0 0 0 19.86.63c-.765-.297-1.637-.499-2.915-.558C15.664.014 15.257 0 11.997 0h.004Zm-1.076 2.162h1.077c3.204 0 3.583.012 4.849.07 1.17.053 1.805.248 2.228.413.56.217.959.477 1.379.897.42.42.68.82.898 1.38.164.423.36 1.058.413 2.228.057 1.265.07 1.645.07 4.847 0 3.203-.013 3.582-.07 4.847-.054 1.17-.25 1.805-.413 2.228a3.71 3.71 0 0 1-.898 1.378c-.42.42-.82.68-1.38.898-.422.165-1.057.36-2.227.413-1.265.058-1.645.07-4.85.07-3.203 0-3.583-.012-4.848-.07-1.17-.054-1.805-.25-2.228-.413a3.717 3.717 0 0 1-1.38-.898 3.72 3.72 0 0 1-.898-1.38c-.165-.422-.36-1.057-.414-2.227-.057-1.265-.069-1.645-.069-4.849s.012-3.582.07-4.847c.053-1.17.248-1.805.413-2.228.217-.56.478-.96.898-1.38.42-.42.82-.68 1.38-.898.423-.165 1.058-.36 2.228-.414 1.107-.05 1.536-.065 3.772-.068v.003Zm7.482 1.993a1.44 1.44 0 1 0 0 2.88 1.44 1.44 0 0 0 0-2.88Zm-6.405 1.682a6.163 6.163 0 1 0 0 12.326 6.163 6.163 0 0 0 0-12.326ZM12 8a4 4 0 1 1 0 8 4 4 0 0 1 0-8Z"/></g></svg>