<svg width="14" height="24" fill="none" xmlns="http://www.w3.org/2000/svg"><path fill-rule="evenodd" clip-rule="evenodd" d="M7.791.076c-.328.086-.828.557-.7.671.115.129.343.1.258-.028-.029-.057.057-.2.214-.286.271-.171.271-.157.128.114-.157.3-.128.329.4.286.2-.014.314.057.314.2 0 .157-.143.2-.57.185-.415-.028-.658.043-.815.215-.243.27-.071.37.2.1.1-.1.171-.086.229.071.07.157.014.228-.186.228-.143 0-.3.058-.343.115-.043.071-.271.1-.514.057-.271-.043-.428 0-.428.1s-.086.157-.172.128c-.1-.014-.328.043-.514.143-.17.1-.442.157-.585.1-.371-.114-.685.043-.8.4-.085.3-.1.3-.285-.114-.114-.243-.2-.372-.214-.3 0 .057-.172.014-.372-.129-.485-.314-.614-.157-.185.214l.342.3-.357-.1c-.2-.057-.4-.171-.456-.257-.115-.157-.129-.114-.172.229 0 .1-.185.2-.4.228-.228.029-.4.129-.4.257 0 .272.186.257.615-.085.428-.343.542-.357.442-.072-.057.143 0 .214.214.214.386 0 .386.229.015.329-.157.043-.286.014-.286-.072 0-.071-.071-.085-.143-.042-.085.057-.1.157-.057.242.1.157-.185.4-.485.4-.114 0-.143-.071-.086-.171.071-.115.029-.129-.143-.072-.143.057-.285.1-.314.1-.028 0-.057.1-.057.214 0 .115-.057.215-.128.215-.072 0-.158.128-.2.285-.057.214 0 .286.214.286.385 0 1.27-.429 1.356-.657.029-.1.157-.143.257-.1.115.029.386-.057.6-.2.214-.157.514-.328.657-.371.128-.057.243-.157.243-.243 0-.071.242-.143.542-.143.5-.014.514-.014.2-.185-.457-.257-.286-.357.543-.286.47.029.714 0 .714-.114 0-.086.085-.129.185-.086.543.229.728.272.643.172-.243-.257.257-.443.956-.357.4.057.586.114.429.128-.181.02-.19.09-.029.214.2.157.229.272.1.571-.071.215-.243.415-.357.457-.114.057-.214.143-.214.2 0 .057-.214.343-.457.614C6.392 5.645 6.15 5.96 6.235 6.03c.128.143.885.086.885-.057 0-.085.129-.143.286-.143.342 0 .357.086.085.372-.242.228-1.028.271-1.156.043-.057-.086-.2-.1-.343-.058a1.928 1.928 0 0 1-.371.129c-.557.128-.814.271-.628.371.142.1.142.157 0 .343-.1.128-.143.328-.1.457.071.171.028.214-.143.143-.143-.058-.2-.015-.172.085.043.1.2.2.372.229.357.057.371.085.171.457-.114.214-.071.285.257.4.214.085.3.157.2.157-.2.014-1.028.728-.828.728.071 0 .043.1-.057.214-.157.186-.129.271.143.5.3.257.514.285 1.956.257.885-.029 1.613-.015 1.613.028 0 .057.214.157.486.257.257.1.656.329.885.529.228.2.485.357.557.357.271 0 .5.785.5 1.713s-.029.985-.5 1.47c-.271.286-.5.615-.5.743 0 .129-.057.186-.143.143-.071-.043-.371.086-.642.3-.343.257-.457.428-.343.5.214.128-.271.4-.785.442-.214.015-.372.086-.372.157 0 .058-.2.186-.442.272-.271.085-.4.214-.357.342.043.1-.057.229-.243.286-.171.057-.357.171-.414.257-.086.114-.114.114-.114 0 0-.1-.157-.129-.357-.086-.2.029-.357.114-.357.172 0 .057-.286.2-.643.3-.357.1-.642.242-.642.3 0 .056-.043.1-.1.1-.386-.058-.6.042-.528.228.057.114.014.214-.072.214a.158.158 0 0 1-.157-.157c0-.114-.057-.114-.2 0-.143.114-.228.128-.3.014-.1-.171-.37-.2-.342-.043.057.371-.029.443-.4.3-.286-.1-.586-.1-1 .014-.5.129-.614.229-.614.486 0 .185-.071.4-.171.5-.129.128-.1.171.128.171.415 0 1.1.371.9.5-.086.057-.243.014-.357-.072-.171-.142-.214-.128-.214.058 0 .128.071.228.157.228.071 0 .114.057.071.128-.057.072.029.1.186.058.157-.043.3.028.343.157.057.128.028.228-.043.228-.172 0-.928.714-.771.728.071 0-.029.072-.229.143-.328.129-.342.157-.1.286.143.085.357.114.472.071.128-.043.17-.014.128.057-.043.086-.186.143-.3.143-.414 0-.185.271.272.314.828.086 2.855-.642 3.14-1.114.058-.114.186-.2.258-.2.086 0 .1.072.043.158-.057.114.014.128.228.057.728-.229 1.285-.514 1.285-.643 0-.086.157-.143.357-.143.2 0 .357-.071.357-.143 0-.085.1-.142.229-.142.357 0 1.342-.6 1.242-.757-.043-.086-.029-.1.057-.057.471.285 4.755-3.77 4.755-4.512 0-.114.1-.286.228-.4.114-.1.186-.3.157-.428-.043-.172.029-.3.229-.357.285-.086.285-.1-.057-.286l-.343-.2.328-.086c.172-.042.315-.157.315-.228 0-.086-.1-.1-.229-.057-.143.057-.2.014-.171-.086a.316.316 0 0 1 .271-.185c.143 0 .2-.215.2-.786 0-.6-.043-.785-.214-.785-.214 0-.286-.086-.286-.371 0-.072.072-.1.143-.058.257.158.457-.07.271-.3-.085-.114-.128-.242-.085-.3.057-.042-.015-.17-.157-.27-.172-.143-.2-.229-.086-.3.228-.157 0-.7-.371-.9-.158-.086-.272-.243-.257-.357.028-.1-.186-.343-.457-.528-.272-.186-.486-.4-.472-.471.043-.229-.514-.743-.999-.943-.257-.1-.486-.214-.528-.257a2.91 2.91 0 0 0-.5-.328c-.528-.3-.6-.586-.229-.957.172-.171.3-.428.3-.571 0-.143.1-.3.214-.357.115-.043.215-.171.215-.271 0-.115.1-.286.214-.386.128-.114.171-.243.1-.342-.214-.258-.3-.8-.157-.886.071-.043.1-.143.043-.214-.043-.086-.1-.4-.115-.7-.028-.4.015-.57.157-.57.357 0 .043-.586-.428-.758-.128-.042-.228-.142-.214-.2.057-.17-.571-.756-.971-.899-.371-.143-.528-.157-.957-.043Zm.957.557c.271.257.285.428.057.571-.1.057-.114.043-.057-.057S8.79.976 8.734.976c-.072 0-.2-.129-.3-.286-.214-.343 0-.385.314-.057Zm-.7 1.2c.043.07.015.142-.057.142-.086 0-.157-.071-.157-.143 0-.085.029-.142.057-.142.043 0 .114.057.157.142Zm.928 2.284c0 .071-.071.143-.157.143-.071 0-.1-.072-.057-.143.043-.086.114-.143.157-.143.029 0 .057.057.057.143Zm-.785.857c.043.071.014.143-.057.143-.086 0-.157-.072-.157-.143 0-.086.028-.143.057-.143.043 0 .114.057.157.143Zm-.143 4.112c-.057.057-.143.014-.185-.1-.058-.157-.086-.157-.186 0-.057.1-.157.143-.2.1-.057-.057-.014-.186.086-.3.171-.171.214-.171.385 0 .115.114.157.243.1.3Zm.643-.114c-.114.071-.272.143-.357.143-.072 0-.043-.072.071-.143.114-.072.286-.143.357-.143.086 0 .043.071-.071.143Zm.5 1.57c.042.072.014.143-.058.143-.085 0-.157-.071-.157-.143 0-.085.029-.142.057-.142.043 0 .115.057.158.143Zm1.17.657c-.128.129-.4-.085-.3-.257.058-.085.143-.085.243.015.086.085.114.185.057.242Zm2.613-.085a.143.143 0 0 1-.142.142.154.154 0 0 1-.143-.142c0-.086.071-.143.143-.143.085 0 .142.057.142.143Zm.429 2.584c0 .157-.057.257-.143.2-.071-.043-.1-.171-.043-.286.1-.3.186-.27.186.086Zm-1.928 1.542c-.043.171-.157.3-.228.3-.086 0-.1-.086-.029-.186a.986.986 0 0 0 .129-.285c.014-.057.028-.143.043-.2 0-.043.057-.057.1 0 .042.043.042.214-.015.371Zm-1.999 2.156c-.043.072-.157.143-.228.143-.086 0-.1-.071-.057-.143a.291.291 0 0 1 .228-.143c.086 0 .1.058.057.143Zm-.785.629c0 .028-.1.085-.214.142-.115.043-.215.015-.215-.057 0-.085.1-.143.215-.143.114 0 .214.029.214.058ZM7.406 19.11c0 .071-.1.1-.214.057-.115-.057-.215-.114-.215-.143 0-.029.1-.057.215-.057.114 0 .214.057.214.143Zm-2.428.128c0 .072-.157.157-.357.186-.4.085-.5-.114-.1-.214.4-.114.457-.1.457.028Zm1.428.015c0 .07-.028.142-.057.142-.043 0-.114-.071-.157-.142-.043-.086-.014-.143.057-.143.086 0 .157.057.157.143Zm2.285-.086c0 .157-.272.214-.357.085-.043-.07.014-.142.128-.142.129 0 .229.028.229.057Zm-2.07.8c-.043.07-.2.142-.33.128-.199 0-.185-.029.044-.128.257-.105.352-.105.285 0Zm-1.643.913c0 .029-.157.086-.357.114-.185.043-.314.015-.271-.042.071-.129.628-.186.628-.072Zm.786.086c.057.086-.072.143-.286.143-.214 0-.343-.057-.286-.143.043-.086.172-.143.286-.143.114 0 .243.057.286.143Zm-3.499.143c0 .071-.1.1-.214.057-.114-.057-.214-.114-.214-.143 0-.029.1-.057.214-.057.114 0 .214.057.214.143Zm1.514.4c-.057.042-.2-.029-.343-.172-.152-.171-.124-.2.086-.085.185.085.3.2.257.257Zm-.943 1.841c-.27.186-.342.186-.514.015-.17-.171-.128-.2.315-.214.485-.015.485 0 .2.2Z"/><path fill-rule="evenodd" clip-rule="evenodd" d="M6.05.861c.042.1.242.257.442.357.314.143.343.143.185-.043C6.42.861 5.964.633 6.05.861ZM4.85 1.447c-.086.114-.3.186-.471.171-.186-.014-.372.029-.415.114-.057.072-.27.143-.5.158-.228 0-.428.085-.442.157-.043.171 1.257.1 1.456-.086.215-.214.4-.143.215.086-.143.171-.129.214.114.214.428 0 .657-.343.4-.614-.115-.114-.172-.243-.129-.3.057-.043.057-.086.014-.086-.042 0-.157.086-.242.186Z"/><path d="M5.906 1.547c.198 0 .357-.064.357-.143 0-.079-.16-.143-.357-.143-.197 0-.357.064-.357.143 0 .079.16.143.357.143Z"/><path fill-rule="evenodd" clip-rule="evenodd" d="M.623 3.832c-.043.071-.014.142.057.142.086 0 .157-.071.157-.142 0-.086-.028-.143-.057-.143-.043 0-.114.057-.157.143Z"/></svg>