<svg width="16" height="24" fill="none" xmlns="http://www.w3.org/2000/svg"><path fill-rule="evenodd" clip-rule="evenodd" d="M11.687.133c-.045.073-.339.103-.648.058C10.42.103 9.242.368 9.242.59c0 .088-.132.147-.28.147-.161 0-.338.06-.382.147-.059.089.118.148.442.148.294 0 .5-.06.441-.133-.235-.397.854-.206 1.134.192.059.088.147-.045.206-.28.088-.368.118-.383.28-.162.103.132.265.22.368.206.103-.03.206.03.25.118.06.176-.883.353-1.973.383-.456 0-.589.058-.53.206.044.118.133.162.206.118.074-.045.133 0 .133.103 0 .162-.22.132-.795-.103-.206-.074-.25-.06-.177.058.059.103-.132.427-.486.796-.456.456-.603.544-.603.338 0-.147.176-.412.382-.589.28-.235.339-.368.207-.442-.177-.117-.634.354-1.105 1.134-.206.368-.206.413-.014.413.176 0 .22.147.176.618-.03.353-.073.692-.088.78-.06.192.147.663.294.663.06 0 .221-.25.339-.574.25-.619 1.428-1.738 1.973-1.87.31-.089.412-.221.353-.545 0-.059.06-.103.133-.103.088 0 .147.059.147.132 0 .074.133.103.295.06.162-.045.309 0 .309.088.088.795.03 1.133-.265 1.443-.192.176-.339.5-.339.706 0 .206-.059.368-.147.368-.074 0-.147.103-.147.221 0 .25-.265.766-.56 1.075-.088.103-.339.574-.545 1.03-.206.457-.47 1.002-.603 1.208a4.79 4.79 0 0 0-.31.619c-.044.147-.132.265-.206.265-.073 0-.132.088-.132.206s-.177.427-.398.677c-.22.265-.412.589-.412.721-.015.133-.191.486-.412.796-.206.309-.471.75-.575.986-.103.25-.235.442-.294.442-.074 0-.118.132-.118.294 0 .162-.059.295-.147.295-.074 0-.147.132-.147.294 0 .162-.103.339-.221.383a.418.418 0 0 0-.221.339c0 .309-.84 1.634-1.045 1.634-.074 0-.103.074-.06.147.045.089-.088.221-.323.31-.398.147-.412.162-.118.382l.294.221-.294-.059c-.162-.03-.339-.103-.383-.162-.147-.206-1.81.516-2.223.972-.236.25-.412.5-.412.56 0 .058-.045.206-.089.338-.059.147-.014.236.133.236.206 0 .397.265.486.692.014.103-.03.191-.103.191-.06 0-.089.103-.045.221.06.118.015.324-.073.427-.118.147-.133.236-.015.31.22.132.177.367-.059.28-.132-.06-.191.043-.191.294 0 .22.073.382.191.382.295 0 .25.545-.044.722-.31.177-.339.162.618.265.413.03.81.132.899.206.22.177 1.384-.84 1.384-1.222 0-.147.103-.265.22-.265.118 0 .221-.118.221-.265 0-.221.103-.265.59-.236.515.03.588-.014.515-.235-.103-.31.25-.471.75-.354.28.074.354.03.369-.176 0-.265.014-.25.132.014.074.162.133.207.133.104.014-.118.132-.148.368-.089.191.044.397.015.442-.073.058-.089.014-.163-.089-.163s-.324-.117-.486-.235c-.28-.22-.25-.22.339-.133.662.104.824 0 .294-.22l-.338-.133h.324a.572.572 0 0 1 .47.236c.119.22.207.235.59.088.25-.088.486-.103.53-.044.044.073.177.103.294.044.148-.044.221.015.221.177 0 .132-.059.206-.132.162-.148-.103-1.031.176-1.325.412-.104.074-.427.132-.707.103l-.516-.044.324.324c.177.176.413.28.53.235.103-.044.25.015.31.133.073.103.309.22.544.25.56.059.692.412.177.412-.206 0-.383-.073-.383-.147a.148.148 0 0 0-.147-.147c-.088 0-.088.103.03.28.176.294 1.03.603 1.604.589.236 0 .25-.044.045-.133-.472-.191-.634-.5-.192-.353.192.059.516.103.722.088.309-.015.324 0 .117.133-.294.162-.206.515.148.56.132.014.662.029 1.163.043.53 0 .883.06.84.148-.075.117.353.073.927-.104.103-.029.147.03.088.162-.059.148.03.207.324.207.324 0 .368-.045.236-.207-.148-.176-.089-.206.353-.191.397.015.618-.088.928-.398.265-.28.338-.441.22-.485-.206-.074-.265-.369-.073-.295.059.015.118-.044.132-.118.03-.088-.103-.147-.28-.147-.353 0-.515-.28-.25-.456.118-.074.133-.044.06.088-.075.133-.06.162.043.088a.404.404 0 0 0 .177-.324c0-.117.044-.191.118-.191.338.059.353-.059.03-.31l-.369-.294h.736l-.47-.441c-.487-.457-.899-.545-1.385-.295-.162.103-.28.103-.28.015 0-.074.089-.177.192-.206.176-.074-.913-.162-1.399-.118-.147.015-.486-.03-.75-.103-.28-.074-.59-.088-.693-.03-.118.074-.073.133.147.192.192.044.28.147.221.25-.059.103-.162.118-.265.015a1.398 1.398 0 0 0-.515-.192c-.177-.014-.339-.117-.339-.191 0-.206-.53-.383-.795-.265-.132.044-.339-.015-.486-.133-.132-.132-.736-.456-1.31-.721-.59-.28-1.075-.589-1.075-.692 0-.103.132-.324.294-.5.162-.177.295-.442.295-.575 0-.147.073-.31.162-.368.088-.044.25-.31.368-.56.118-.25.442-.824.721-1.266.28-.441.472-.898.442-.986-.03-.103.03-.236.133-.295.25-.147.824-1.148.824-1.443 0-.117.103-.265.236-.338.132-.074.206-.221.176-.339-.044-.118.03-.28.148-.368a.71.71 0 0 0 .265-.398c.014-.117.22-.515.456-.868.236-.354.398-.751.368-.899-.03-.132.06-.294.177-.338.132-.044.236-.206.236-.354 0-.147.044-.294.117-.323.133-.06.619-.972.619-1.193 0-.088.088-.265.206-.383.28-.339.397-1.119.191-1.325-.132-.147-.117-.162.089-.088.191.088.25.029.25-.207 0-.176-.088-.309-.191-.309-.133 0-.162-.176-.133-.589.044-.47.103-.56.25-.441.147.117.206.058.25-.28.06-.383.015-.442-.309-.486-.353-.044-.353-.059-.103-.31.25-.235.236-.25-.191-.25-.471 0-.736-.22-.427-.353.132-.044.044-.191-.236-.427-.265-.236-.353-.398-.25-.456.088-.06.162-.03.162.058 0 .089.074.118.147.074.089-.059.118-.162.074-.235-.118-.177-.471-.177-.574 0ZM10.64.589c.044.074.015.147-.059.147-.088 0-.162-.073-.162-.147 0-.088.03-.147.06-.147.043 0 .117.059.161.147Zm2.503 1.767c.044.073.015.147-.059.147-.088 0-.162-.074-.162-.147 0-.089.03-.147.06-.147.043 0 .117.058.161.147Zm-1.59 1.266c-.044.044-.177.059-.28.015-.117-.044-.073-.089.089-.089.162-.014.25.03.191.074Zm-.515 1.855c-.103.103-.177.118-.177.03 0-.206.177-.383.28-.28.03.044-.015.162-.103.25Zm-.604 1.193c-.147.132-.162.118-.074-.088.045-.148.133-.221.177-.177.044.044 0 .162-.103.265Zm-.147.442c-.088.117-.118.25-.06.294.045.059.016.103-.073.103-.265 0-.382-.324-.162-.456.31-.192.486-.162.295.059Zm-.53 1.28c.044.074-.015.148-.133.148-.132 0-.235.118-.235.25-.015.236-.03.236-.162-.015-.133-.206-.118-.294.03-.397.264-.162.382-.162.5.015Zm-1.03 1.62c.043.074-.016.147-.133.147-.133 0-.236-.073-.236-.147 0-.088.059-.147.133-.147a.28.28 0 0 1 .235.147Zm-.31.766c-.044.059-.177.118-.295.118-.176 0-.176-.06-.029-.295.118-.191.22-.235.28-.118.059.103.073.236.044.295Zm-.31.662c.03.074-.161.31-.426.53-.28.236-.5.369-.5.28 0-.073.102-.22.22-.324.118-.103.22-.28.22-.382 0-.221.384-.295.487-.104Zm-.853 1.223c-.044.073-.162.147-.236.147-.088 0-.103-.074-.059-.147a.3.3 0 0 1 .236-.148c.088 0 .103.06.059.148Zm-.766 1.34c-.118.235-.265.412-.31.368-.102-.104.266-.825.428-.825.059 0 .015.206-.118.457Zm-.486.765c0 .103-.103.324-.235.486-.207.25-.221.25-.148.015.045-.148.089-.368.089-.486s.073-.206.147-.206c.088 0 .147.088.147.191Zm-.736 1.428a.148.148 0 0 1-.147.148.158.158 0 0 1-.148-.148c0-.088.074-.147.148-.147.088 0 .147.059.147.147Zm-.442.736a.148.148 0 0 1-.147.148.158.158 0 0 1-.147-.147c0-.089.073-.148.147-.148.088 0 .147.06.147.148Zm2.724 2.21c.044.073.015.146-.059.146-.088 0-.162-.073-.162-.147 0-.088.03-.147.06-.147.043 0 .117.059.161.147Zm-6.051.117c.03.059-.06.132-.221.132-.147.015-.28-.029-.28-.117 0-.162.398-.177.5-.015Zm4.417-.03c.132.045.206.148.162.221-.103.148-.516 0-.516-.176 0-.162.045-.162.354-.044Zm6.714.501c0 .103.088.103.28 0 .162-.088.324-.088.368-.015.147.221-.633.28-.81.074-.118-.147-.118-.206 0-.206.088 0 .162.074.162.147Zm-2.871.147c.044.074.03.148-.06.148-.073 0-.19-.074-.235-.148-.044-.088-.03-.147.06-.147a.3.3 0 0 1 .235.147Zm-4.182.177c0 .147.03.147.089 0 .029-.088.132-.132.206-.088.088.059.088.162-.015.28-.133.161-.236.176-.457.029-.338-.206-.368-.398-.058-.398.117 0 .22.089.235.177Zm4.506.353c-.045.045-.177.06-.28.015-.118-.044-.074-.088.088-.088.162-.015.25.03.192.073Zm1.325 0c-.044.045-.177.06-.28.015-.118-.044-.074-.088.088-.088.162-.015.25.03.192.073Zm1.62 0c-.045.045-.177.06-.28.015-.118-.044-.074-.088.088-.088.162-.015.25.03.191.073Zm-2.754.354c.295.088.31.118.074.118-.162 0-.457-.06-.663-.118-.294-.089-.309-.118-.073-.118.162 0 .456.059.662.118Zm-1.03.25c0 .192-1.164.692-1.296.56-.06-.06-.015-.148.088-.177a.341.341 0 0 0 .177-.28c0-.132.162-.206.515-.206.28 0 .515.044.515.103Zm1.825.471c.044.074-.088.118-.294.118-.28 0-.324-.03-.192-.118.265-.162.383-.162.486 0Zm-1.678.236c.147.177.132.22-.118.22-.427 0-.78-.161-.677-.308.117-.207.589-.162.795.088Zm2.65.088c0 .206-.398.147-.486-.073-.059-.148 0-.177.206-.133.148.044.28.133.28.206Zm-1.384.383c-.044.103 0 .191.088.191.089 0 .133.045.089.089-.089.088-.707-.25-.707-.383 0-.044.132-.088.294-.088.192 0 .28.073.236.191Zm-8.702.191c.044.074.03.148-.059.148-.073 0-.191-.074-.235-.148-.045-.088-.03-.147.058-.147a.3.3 0 0 1 .236.147Zm10.307.56c-.044.044-.162 0-.265-.103-.133-.147-.118-.162.088-.074.147.044.221.133.177.177Zm1.016.015c.044.073-.103.162-.339.191-.31.044-.412.015-.353-.133.088-.22.574-.265.692-.058Zm1.119.162a.148.148 0 0 1-.147.147.158.158 0 0 1-.148-.147c0-.089.074-.148.148-.148.088 0 .147.06.147.148Z"/><path fill-rule="evenodd" clip-rule="evenodd" d="M8.153 1.458c-.044.059.088.088.28.044.206-.03.368-.088.368-.118 0-.117-.575-.059-.648.074ZM7.255 20.76c.059.09.162.118.235.074.206-.132.162-.22-.103-.22-.118 0-.176.073-.132.147ZM5.488 21.497c.073.132 1.428.589 1.722.589.06 0 .118-.074.118-.147 0-.089-.118-.148-.265-.148-.147 0-.324-.059-.397-.132-.206-.192-1.296-.354-1.178-.162ZM.113 22.675c0 .074.074.147.162.147.074 0 .103-.073.06-.147-.045-.088-.118-.147-.163-.147-.03 0-.059.059-.059.147ZM1.365 23.853c.044.074.162.147.236.147.088 0 .103-.073.059-.147a.3.3 0 0 0-.236-.147c-.088 0-.103.059-.059.147Z"/></svg>