<svg width="14" height="24" fill="none" xmlns="http://www.w3.org/2000/svg"><path fill-rule="evenodd" clip-rule="evenodd" d="M11.533.61c-.328.415-.6.786-.6.858 0 .057-.415.529-.93 1.043-.514.515-.928 1.03-.928 1.144 0 .129-.086.214-.172.186-.1-.014-.186.1-.186.257 0 .172-.157.372-.371.472-.5.257-2.073 1.715-2.016 1.901.014.072-.057.129-.157.129-.115 0-.315.129-.458.286-.171.19-.095.257.229.2.271-.057.557-.186.643-.286.129-.157.2-.143.415.086.243.271.243.286-.1.414-.186.072-.43.229-.53.358-.1.128-.285.228-.4.228-.114 0-.157.072-.114.158.057.085.186.114.3.071.115-.043.2.014.2.129 0 .243-.371.286-.5.071-.057-.085-.157-.1-.243-.057-.1.072-.129.014-.071-.129.042-.142.028-.243-.043-.243-.258 0-.143-.314.143-.386.157-.042.286-.128.286-.2 0-.314-1.301.472-2.045 1.244-.529.543-.529.558-.214.643.2.043.343 0 .372-.114.028-.1.185-.186.357-.2.171 0 .229-.043.143-.086-.315-.114-.2-.329.171-.329.2 0 .358.029.358.072 0 .243-.5.772-.8.843-.187.057-.344.186-.344.3a.22.22 0 0 1-.214.215c-.258 0-.286-.243-.029-.329.1-.029 0-.143-.243-.257-.386-.172-.429-.172-.715.2-.171.214-.4.386-.514.386-.115 0-.372.171-.558.357-.186.2-.4.358-.5.358-.3.014-1.087.857-1.087 1.172 0 .314 0 .329.186-.029.115-.229.33-.372.6-.414.372-.043.387-.058.144-.158-.23-.085-.172-.114.257-.171.329-.029.515 0 .472.086a.202.202 0 0 1-.215.128c-.271-.071-.171.215.172.472.3.229.214.214-.372-.014-.243-.1-.986.471-.915.7.043.086-.071.3-.228.472-.158.186-.215.329-.13.329.087 0 .13.1.087.214-.058.114-.043.215.014.215.2 0 1.601-.715 1.858-.973.158-.142.343-.285.43-.328.07-.029.128-.115.1-.186-.072-.215.314-.372.428-.186.086.129.114.129.114-.014 0-.086.086-.172.186-.172.23 0 1.73-1.043 2.402-1.672.272-.258.572-.472.658-.472.1 0 .285-.157.414-.357.129-.2.3-.358.386-.358.072 0 .415-.257.758-.572.343-.314.715-.572.843-.572.286 0 .286.63 0 .858-.128.1-.2.272-.157.372.043.1-.057.343-.214.543-.158.2-.258.429-.2.5.042.072 0 .186-.086.23a.277.277 0 0 0-.072.3c.043.114.014.2-.071.2-.086 0-.129.1-.072.214.043.114-.057.3-.214.414-.186.13-.229.23-.143.3.086.044.157.158.157.23 0 .085-.057.114-.129.07-.243-.156-.3.559-.057.73.215.171.215.186-.057.186-.2 0-.329.143-.443.529-.215.743-.2.829.157.8.286-.028.286-.014.072.143l-.472.315c-.2.114-.358.586-.715 2.101a2.363 2.363 0 0 1-.2.515c-.086.157-.1.329-.043.386.057.043 0 .171-.129.257-.128.1-.314.515-.414.915-.115.415-.258.758-.329.758-.071 0-.086.1-.043.228.057.13.014.33-.071.43-.086.114-.129.2-.086.2.043 0 .014.185-.057.414-.1.286-.1.515-.015.686.13.229.172.215.33-.143.1-.214.285-.386.428-.386.229 0 .243.029.057.386-.114.229-.171.515-.128.643.042.143.014.258-.058.258-.085 0-.128.114-.1.243.015.143-.028.343-.114.429-.086.128-.086.257.029.386.085.114.143.286.128.386-.086.386.443.271.958-.215.415-.4.515-.586.472-.872-.043-.186-.015-.314.057-.271.2.128.715-.544.643-.83-.043-.142-.014-.257.072-.257.071 0 .1-.114.043-.271-.043-.172 0-.3.143-.358.171-.057.2-.143.071-.357-.086-.186-.086-.315 0-.372.072-.043.1-.172.043-.3-.043-.129 0-.2.1-.172.214.043.443-.686.457-1.43.015-.242.086-.457.158-.457.071 0 .1-.128.057-.286-.043-.143-.029-.286.043-.314.171-.072.3-.83.143-.83a.154.154 0 0 1-.143-.142c0-.086.114-.143.257-.143.186 0 .2-.029.043-.129-.157-.1-.157-.128 0-.2.172-.071.172-.1.014-.214-.157-.1-.143-.158.057-.23.2-.07.215-.128.086-.213-.143-.086-.086-.172.186-.358.3-.2.343-.286.2-.529-.086-.157-.1-.4-.043-.529.057-.128.115-.343.129-.457.057-.515.243-.844.515-.93.171-.057.271-.214.271-.428 0-.186.158-.63.343-.987.2-.371.315-.657.286-.657-.028 0 .029-.215.143-.486.157-.372.157-.515.043-.558-.114-.043-.086-.157.086-.343.143-.171.271-.429.286-.6.014-.158.1-.3.2-.3.114 0 .186-.172.186-.4 0-.23.043-.458.114-.515.057-.058.114-.158.114-.2.086-.387.258-.744.358-.744.071 0 .128-.157.128-.357 0-.215.1-.572.23-.8.114-.244.185-.473.142-.515-.043-.043.086-.315.272-.615.186-.3.314-.572.271-.615-.043-.043.029-.243.172-.457.214-.33.214-.4.043-.515a.889.889 0 0 0-.372-.129c-.257 0-.229-.386.043-.486.129-.057.186-.028.114.072-.057.1-.014.143.1.1.286-.1.344-.543.072-.543-.129 0-.229-.1-.229-.215 0-.114-.057-.214-.143-.214-.071 0-.143.071-.143.157 0 .086-.143.129-.314.1-.243-.029-.315-.129-.3-.357.014-.158-.043-.372-.158-.458-.143-.114-.314.015-.772.572Zm1.544 1.758c0 .043-.057.115-.143.158-.071.043-.143.014-.143-.058 0-.085.072-.157.143-.157.086 0 .143.029.143.057ZM9.503 4.456c.115.071.172.171.13.214-.115.114-.558-.072-.558-.229 0-.157.157-.157.428.015Zm-.428.428c0 .072-.029.143-.058.143-.042 0-.114-.071-.157-.143-.043-.085-.014-.143.057-.143.086 0 .158.058.158.143Zm-.358.43c.115.185-.071.185-.357 0-.186-.115-.186-.144.028-.144.129 0 .286.057.33.143Zm-.071.7c0 .057-.158.085-.358.043-.2-.029-.357-.086-.357-.115 0-.028.157-.057.357-.057.2 0 .358.057.358.129Zm-1.03.143c.143.085.143.143-.014.286-.171.128-.229.1-.286-.13-.071-.3 0-.356.3-.156Zm2.116 2.115c-.143.143-.271-.071-.143-.257.086-.157.115-.157.172 0 .028.1.014.215-.029.257Zm-4.446-.1c.043.072-.014.143-.128.143-.115 0-.258-.071-.3-.143-.043-.085.014-.143.128-.143s.257.058.3.143ZM3.171 9.831c-.043.043-.172.057-.272.014-.114-.043-.072-.086.086-.086.157-.014.243.029.186.072Zm6.018.657c-.072.229-.686.343-.686.143 0-.157.243-.286.543-.3.114-.014.172.071.143.157Zm-6.69.229c0 .2-.158.3-.372.214-.3-.114-.243-.328.086-.328.157 0 .286.057.286.114Zm6.147 1.387c0 .114-.072.214-.158.214-.085 0-.243-.1-.357-.214-.2-.186-.186-.215.143-.215.229 0 .372.086.372.215Zm-.644 1.358c.043.071-.014.143-.143.143-.128 0-.185-.072-.142-.143.042-.086.114-.143.142-.143.029 0 .1.057.143.143Z"/></svg>